<?xml version="1.0" encoding="UTF-8"?>
<svg class="tc-image-spiral tc-image-button" width="20" height="20" version="1.1" viewBox="0 0 20 20" xmlns="http://www.w3.org/2000/svg" xmlns:cc="http://creativecommons.org/ns#" xmlns:dc="http://purl.org/dc/elements/1.1/" xmlns:rdf="http://www.w3.org/1999/02/22-rdf-syntax-ns#">
 <metadata>
  <rdf:RDF>
   <cc:Work rdf:about="">
    <dc:format>image/svg+xml</dc:format>
    <dc:type rdf:resource="http://purl.org/dc/dcmitype/StillImage"/>
    <dc:title/>
    <cc:license rdf:resource=""/>
   </cc:Work>
  </rdf:RDF>
 </metadata>
 <path d="m9.17 9.99c0.578 0 1.04-0.487 1.1-1.11l-0.811-0.1 0.81 0.108c0.0643-0.571-0.204-1.13-0.664-1.45-0.47-0.33-1.08-0.374-1.63-0.13-0.59 0.261-1.05 0.817-1.25 1.51l-0.00171 0.00483c-0.222 0.759-0.123 1.61 0.27 2.33 0.426 0.781 1.15 1.34 2.01 1.54 0.916 0.214 1.9-0.0093 2.7-0.615 0.86-0.653 1.44-1.68 1.61-2.84 0.179-1.25-0.123-2.53-0.839-3.57l0.0034 0.00372c-0.754-1.1-1.91-1.83-3.2-2-1.36-0.188-2.75 0.244-3.85 1.2-1.16 1-1.91 2.49-2.07 4.14-0.167 1.72 0.319 3.47 1.35 4.84 1.08 1.43 2.66 2.34 4.39 2.51 1.8 0.178 3.61-0.45 5.02-1.75l0.0017-0.0019c1.46-1.35 2.38-3.31 2.53-5.43 0.16-2.2-0.505-4.4-1.85-6.12-1.4-1.77-3.4-2.86-5.58-3.02-2.24-0.175-4.48 0.649-6.2 2.29l0.00171-0.00186c-1.78 1.69-2.86 4.11-3.02 6.72-0.159 2.68 0.687 5.35 2.35 7.4 1.71 2.1 4.14 3.38 6.75 3.55 2.68 0.171 5.34-0.848 7.38-2.83 2.09-2.04 3.35-4.92 3.5-8.01 0.0239-0.491-0.322-0.909-0.771-0.935-0.45-0.026-0.834 0.35-0.858 0.84-0.128 2.62-1.19 5.06-2.96 6.78-1.71 1.67-3.94 2.52-6.19 2.38-2.18-0.139-4.21-1.2-5.63-2.95-1.38-1.69-2.08-3.89-1.95-6.1 0.126-2.14 1.01-4.12 2.46-5.49l0.00171-0.00186c1.4-1.33 3.2-2 5.01-1.86 1.74 0.135 3.34 1.01 4.45 2.41 1.06 1.35 1.59 3.09 1.46 4.81-0.122 1.65-0.832 3.17-1.96 4.21l0.0017-0.0013c-1.08 0.993-2.46 1.47-3.83 1.34-1.3-0.126-2.48-0.802-3.28-1.86-0.757-1-1.11-2.27-0.99-3.52 0.114-1.17 0.641-2.23 1.46-2.93 0.761-0.658 1.71-0.953 2.63-0.825 0.858 0.117 1.61 0.591 2.1 1.3l0.0034 0.00446c0.452 0.651 0.64 1.45 0.529 2.22-0.101 0.69-0.44 1.29-0.93 1.66-0.437 0.329-0.957 0.447-1.43 0.337-0.413-0.0959-0.754-0.357-0.943-0.705-0.159-0.29-0.196-0.614-0.118-0.883l-0.778-0.269 0.781 0.279c0.0614-0.208 0.182-0.354 0.314-0.413 0.0426-0.0192 0.0819-0.026 0.114-0.0242 0.0102 0.00112 0.0188 0.00279 0.0239 0.00465 0.00171 0 0.00171 0-0.00171-0.00186-0.00341-0.00279-0.00921-0.00837-0.016-0.0164-0.0102-0.0119-0.0205-0.027-0.029-0.0454-0.0256-0.0539-0.0392-0.126-0.0307-0.206l-8.53e-4 0.00744c0.0256-0.248 0.235-0.469 0.518-0.469-0.452 0-0.817 0.399-0.817 0.89s0.365 0.89 0.815 0.89z" fill="#d40000" stroke-width=".178"/>
</svg>
