<?xml version="1.0" encoding="UTF-8" standalone="no"?>
<!-- Created with Inkscape (http://www.inkscape.org/) -->

<svg
   xmlns:dc="http://purl.org/dc/elements/1.1/"
   xmlns:cc="http://creativecommons.org/ns#"
   xmlns:rdf="http://www.w3.org/1999/02/22-rdf-syntax-ns#"
   xmlns:svg="http://www.w3.org/2000/svg"
   xmlns="http://www.w3.org/2000/svg"
   xmlns:sodipodi="http://sodipodi.sourceforge.net/DTD/sodipodi-0.dtd"
   xmlns:inkscape="http://www.inkscape.org/namespaces/inkscape"
   width="256"
   height="256"
   viewBox="0 0 67.733332 67.733335"
   version="1.1"
   id="svg1258"
   sodipodi:docname="diamond_1.svg"
   inkscape:export-filename="D:\git\webpack-modules\addon\icons\diamond-32.png"
   inkscape:export-xdpi="12"
   inkscape:export-ydpi="12"
   inkscape:version="0.92.1 r15371">
  <defs
     id="defs1252">
    <filter
       height="1.0316741"
       y="-0.015837055"
       width="1.0193193"
       x="-0.0096596321"
       id="filter5084"
       style="color-interpolation-filters:sRGB">
      <feGaussianBlur
         id="feGaussianBlur5086"
         stdDeviation="0.63780403" />
    </filter>
  </defs>
  <sodipodi:namedview
     id="base"
     pagecolor="#ffffff"
     bordercolor="#666666"
     borderopacity="1.0"
     inkscape:pageopacity="0.0"
     inkscape:pageshadow="2"
     inkscape:zoom="2.8"
     inkscape:cx="188.81603"
     inkscape:cy="125.58533"
     inkscape:document-units="mm"
     inkscape:current-layer="layer1"
     showgrid="false"
     units="px"
     inkscape:window-width="2147"
     inkscape:window-height="985"
     inkscape:window-x="550"
     inkscape:window-y="107"
     inkscape:window-maximized="0" />
  <metadata
     id="metadata1255">
    <rdf:RDF>
      <cc:Work
         rdf:about="">
        <dc:format>image/svg+xml</dc:format>
        <dc:type
           rdf:resource="http://purl.org/dc/dcmitype/StillImage" />
        <dc:title></dc:title>
      </cc:Work>
    </rdf:RDF>
  </metadata>
  <g
     inkscape:label="Ebene 1"
     inkscape:groupmode="layer"
     id="layer1"
     transform="translate(0,-229.26665)">
    <g
       id="g6058"
       transform="matrix(1,0,0,1.4405409,0,-107.54611)">
      <polygon
         style="fill:#00ff00;stroke:#303fc3;stroke-width:17.93240547;stroke-linejoin:bevel;stroke-miterlimit:4;stroke-dasharray:none;stroke-opacity:0.92523367"
         points="697.17883,609.18591 835.55774,542.53558 887.64813,581.59937 598.98456,715.59576 "
         id="polygon4716"
         transform="matrix(0.06141473,0,0,0.07589156,-31.494713,198.24448)" />
      <polygon
         style="fill:#00ff00;stroke:#303fc3;stroke-width:17.93240547;stroke-linejoin:bevel;stroke-miterlimit:4;stroke-dasharray:none;stroke-opacity:0.92523367"
         points="954.51166,537.43353 887.64813,581.59937 835.55774,542.53558 "
         id="polygon4718"
         transform="matrix(0.06141473,0,0,0.07589156,-31.494713,198.24448)" />
      <polygon
         style="fill:#00ff00;stroke:#303fc3;stroke-width:17.93240547;stroke-linejoin:bevel;stroke-miterlimit:4;stroke-dasharray:none;stroke-opacity:0.92523367"
         points="786.73529,716.68274 598.98456,715.59576 887.64813,581.59937 "
         id="polygon4722"
         transform="matrix(0.06141473,0,0,0.07589156,-31.494713,198.24448)" />
      <polygon
         style="fill:#00ff00;stroke:#303fc3;stroke-width:17.93240547;stroke-linejoin:bevel;stroke-miterlimit:4;stroke-dasharray:none;stroke-opacity:0.92523367"
         points="1243.7167,581.59937 1295.8073,542.53552 1434.1862,609.18585 1532.3802,715.59576 "
         id="polygon4726"
         transform="matrix(0.06141473,0,0,0.07589156,-31.494713,198.24448)" />
      <polygon
         style="fill:#00ff00;stroke:#303fc3;stroke-width:17.93240547;stroke-linejoin:bevel;stroke-miterlimit:4;stroke-dasharray:none;stroke-opacity:0.92523367"
         points="1176.8533,537.43353 1243.7169,581.59937 1065.6825,526.90918 "
         id="polygon4728"
         transform="matrix(0.06141473,0,0,0.07589156,-31.494713,198.24448)" />
      <polygon
         style="fill:#00ff00;stroke:#303fc3;stroke-width:17.93240547;stroke-linejoin:bevel;stroke-miterlimit:4;stroke-dasharray:none;stroke-opacity:0.92523367"
         points="1599.87,728.74066 1532.3802,715.59576 1434.1862,609.18585 "
         id="polygon4736"
         transform="matrix(0.06141473,0,0,0.07589156,-31.494713,198.24448)" />
      <polygon
         style="fill:#00ff00;stroke:#303fc3;stroke-width:17.93240547;stroke-linejoin:bevel;stroke-miterlimit:4;stroke-dasharray:none;stroke-opacity:0.92523367"
         points="1295.8073,542.53552 1243.7167,581.59937 1176.8533,537.43353 "
         id="polygon4738"
         transform="matrix(0.06141473,0,0,0.07589156,-31.494713,198.24448)" />
      <polygon
         style="fill:#00ff00;stroke:#303fc3;stroke-width:17.93240547;stroke-linejoin:bevel;stroke-miterlimit:4;stroke-dasharray:none;stroke-opacity:0.92523367"
         points="697.17883,609.18591 598.98456,715.59576 531.49493,728.74066 "
         id="polygon4740"
         transform="matrix(0.06141473,0,0,0.07589156,-31.494713,198.24448)" />
      <polygon
         style="fill:#00ff00;stroke:#303fc3;stroke-width:17.93240547;stroke-linejoin:bevel;stroke-miterlimit:4;stroke-dasharray:none;stroke-opacity:0.92523367"
         points="887.64819,581.59937 1065.6825,526.90918 1243.7169,581.59937 1065.6825,706.89667 "
         id="polygon4742"
         transform="matrix(0.06141473,0,0,0.07589156,-31.494713,198.24448)" />
      <polygon
         style="fill:#00ff00;stroke:#303fc3;stroke-width:17.93240547;stroke-linejoin:bevel;stroke-miterlimit:4;stroke-dasharray:none;stroke-opacity:0.92523367"
         points="887.64819,581.59937 1065.6825,706.89667 786.73553,716.68274 "
         id="polygon4744"
         transform="matrix(0.06141473,0,0,0.07589156,-31.494713,198.24448)" />
      <polygon
         style="fill:#00ff00;stroke:#303fc3;stroke-width:17.93240547;stroke-linejoin:bevel;stroke-miterlimit:4;stroke-dasharray:none;stroke-opacity:0.92523367"
         points="1344.6295,716.68274 1065.6825,706.89667 1243.7169,581.59937 "
         id="polygon4746"
         transform="matrix(0.06141473,0,0,0.07589156,-31.494713,198.24448)" />
      <polygon
         style="fill:#00ff00;stroke:#303fc3;stroke-width:17.93240547;stroke-linejoin:bevel;stroke-miterlimit:4;stroke-dasharray:none;stroke-opacity:0.92523367"
         points="1243.7167,581.59937 1532.3802,715.59576 1344.6293,716.68274 "
         id="polygon4750"
         transform="matrix(0.06141473,0,0,0.07589156,-31.494713,198.24448)" />
      <polygon
         style="fill:#00ff00;stroke:#303fc3;stroke-width:17.93240547;stroke-linejoin:bevel;stroke-miterlimit:4;stroke-dasharray:none;stroke-opacity:0.92523367"
         points="531.49493,728.74066 598.98456,715.59576 598.98456,741.99615 531.49493,740.30469 "
         id="polygon4752"
         transform="matrix(0.06141473,0,0,0.07589156,-31.494713,198.24448)" />
      <polygon
         style="fill:#00ff00;stroke:#303fc3;stroke-width:17.93240547;stroke-linejoin:bevel;stroke-miterlimit:4;stroke-dasharray:none;stroke-opacity:0.92523367"
         points="1532.3802,741.99615 1532.3802,715.59576 1599.87,728.74066 1599.87,740.30463 "
         id="polygon4754"
         transform="matrix(0.06141473,0,0,0.07589156,-31.494713,198.24448)" />
      <polygon
         style="fill:#00ff00;stroke:#303fc3;stroke-width:17.93240547;stroke-linejoin:bevel;stroke-miterlimit:4;stroke-dasharray:none;stroke-opacity:0.92523367"
         points="598.98456,741.99615 598.98456,715.59576 786.73529,716.68274 786.73529,731.26123 "
         id="polygon4756"
         transform="matrix(0.06141473,0,0,0.07589156,-31.494713,198.24448)" />
      <polygon
         style="fill:#00ff00;stroke:#303fc3;stroke-width:17.93240547;stroke-linejoin:bevel;stroke-miterlimit:4;stroke-dasharray:none;stroke-opacity:0.92523367"
         points="1344.6293,716.68274 1532.3802,715.59576 1532.3802,741.99615 1344.6293,731.26123 "
         id="polygon4758"
         transform="matrix(0.06141473,0,0,0.07589156,-31.494713,198.24448)" />
      <polygon
         style="fill:#00ff00;stroke:#303fc3;stroke-width:17.93240547;stroke-linejoin:bevel;stroke-miterlimit:4;stroke-dasharray:none;stroke-opacity:0.92523367"
         points="786.73553,716.68274 1065.6825,706.89667 1065.6825,737.16333 786.73553,731.26123 "
         id="polygon4760"
         transform="matrix(0.06141473,0,0,0.07589156,-31.494713,198.24448)" />
      <polygon
         style="fill:#00ff00;stroke:#303fc3;stroke-width:17.93240547;stroke-linejoin:bevel;stroke-miterlimit:4;stroke-dasharray:none;stroke-opacity:0.92523367"
         points="1065.6825,737.16333 1065.6825,706.89667 1344.6295,716.68274 1344.6295,731.26123 "
         id="polygon4762"
         transform="matrix(0.06141473,0,0,0.07589156,-31.494713,198.24448)" />
      <polygon
         style="fill:#00ff00;stroke:#303fc3;stroke-width:17.93240547;stroke-linejoin:bevel;stroke-miterlimit:4;stroke-dasharray:none;stroke-opacity:0.92523367"
         points="1065.6825,526.90918 887.64819,581.59937 954.51178,537.43353 "
         id="polygon4764"
         transform="matrix(0.06141473,0,0,0.07589156,-31.494713,198.24448)" />
    </g>
    <g
       transform="matrix(0.99871575,0,0,-1.5867934,0.04360515,668.1804)"
       id="g6098">
      <polygon
         transform="matrix(0.06141473,0,0,0.07589156,-31.494713,198.24448)"
         id="polygon6060"
         points="835.55774,542.53558 887.64813,581.59937 598.98456,715.59576 697.17883,609.18591 "
         style="fill:#00ff00;stroke:#303fc3;stroke-width:17.93240547;stroke-linejoin:bevel;stroke-miterlimit:4;stroke-dasharray:none;stroke-opacity:0.92523367" />
      <polygon
         transform="matrix(0.06141473,0,0,0.07589156,-31.494713,198.24448)"
         id="polygon6062"
         points="887.64813,581.59937 835.55774,542.53558 954.51166,537.43353 "
         style="fill:#00ff00;stroke:#303fc3;stroke-width:17.93240547;stroke-linejoin:bevel;stroke-miterlimit:4;stroke-dasharray:none;stroke-opacity:0.92523367" />
      <polygon
         transform="matrix(0.06141473,0,0,0.07589156,-31.494713,198.24448)"
         id="polygon6064"
         points="598.98456,715.59576 887.64813,581.59937 786.73529,716.68274 "
         style="fill:#00ff00;stroke:#303fc3;stroke-width:17.93240547;stroke-linejoin:bevel;stroke-miterlimit:4;stroke-dasharray:none;stroke-opacity:0.92523367" />
      <polygon
         transform="matrix(0.06141473,0,0,0.07589156,-31.494713,198.24448)"
         id="polygon6066"
         points="1295.8073,542.53552 1434.1862,609.18585 1532.3802,715.59576 1243.7167,581.59937 "
         style="fill:#00ff00;stroke:#303fc3;stroke-width:17.93240547;stroke-linejoin:bevel;stroke-miterlimit:4;stroke-dasharray:none;stroke-opacity:0.92523367" />
      <polygon
         transform="matrix(0.06141473,0,0,0.07589156,-31.494713,198.24448)"
         id="polygon6068"
         points="1243.7169,581.59937 1065.6825,526.90918 1176.8533,537.43353 "
         style="fill:#00ff00;stroke:#303fc3;stroke-width:17.93240547;stroke-linejoin:bevel;stroke-miterlimit:4;stroke-dasharray:none;stroke-opacity:0.92523367" />
      <polygon
         transform="matrix(0.06141473,0,0,0.07589156,-31.494713,198.24448)"
         id="polygon6070"
         points="1532.3802,715.59576 1434.1862,609.18585 1599.87,728.74066 "
         style="fill:#00ff00;stroke:#303fc3;stroke-width:17.93240547;stroke-linejoin:bevel;stroke-miterlimit:4;stroke-dasharray:none;stroke-opacity:0.92523367" />
      <polygon
         transform="matrix(0.06141473,0,0,0.07589156,-31.494713,198.24448)"
         id="polygon6072"
         points="1243.7167,581.59937 1176.8533,537.43353 1295.8073,542.53552 "
         style="fill:#00ff00;stroke:#303fc3;stroke-width:17.93240547;stroke-linejoin:bevel;stroke-miterlimit:4;stroke-dasharray:none;stroke-opacity:0.92523367" />
      <polygon
         transform="matrix(0.06141473,0,0,0.07589156,-31.494713,198.24448)"
         id="polygon6074"
         points="598.98456,715.59576 531.49493,728.74066 697.17883,609.18591 "
         style="fill:#00ff00;stroke:#303fc3;stroke-width:17.93240547;stroke-linejoin:bevel;stroke-miterlimit:4;stroke-dasharray:none;stroke-opacity:0.92523367" />
      <polygon
         transform="matrix(0.06141473,0,0,0.07589156,-31.494713,198.24448)"
         id="polygon6076"
         points="1065.6825,526.90918 1243.7169,581.59937 1065.6825,706.89667 887.64819,581.59937 "
         style="fill:#00ff00;stroke:#303fc3;stroke-width:17.93240547;stroke-linejoin:bevel;stroke-miterlimit:4;stroke-dasharray:none;stroke-opacity:0.92523367" />
      <polygon
         transform="matrix(0.06141473,0,0,0.07589156,-31.494713,198.24448)"
         id="polygon6078"
         points="1065.6825,706.89667 786.73553,716.68274 887.64819,581.59937 "
         style="fill:#00ff00;stroke:#303fc3;stroke-width:17.93240547;stroke-linejoin:bevel;stroke-miterlimit:4;stroke-dasharray:none;stroke-opacity:0.92523367" />
      <polygon
         transform="matrix(0.06141473,0,0,0.07589156,-31.494713,198.24448)"
         id="polygon6080"
         points="1065.6825,706.89667 1243.7169,581.59937 1344.6295,716.68274 "
         style="fill:#00ff00;stroke:#303fc3;stroke-width:17.93240547;stroke-linejoin:bevel;stroke-miterlimit:4;stroke-dasharray:none;stroke-opacity:0.92523367" />
      <polygon
         transform="matrix(0.06141473,0,0,0.07589156,-31.494713,198.24448)"
         id="polygon6082"
         points="1532.3802,715.59576 1344.6293,716.68274 1243.7167,581.59937 "
         style="fill:#00ff00;stroke:#303fc3;stroke-width:17.93240547;stroke-linejoin:bevel;stroke-miterlimit:4;stroke-dasharray:none;stroke-opacity:0.92523367" />
      <polygon
         transform="matrix(0.06141473,0,0,0.07589156,-31.494713,198.24448)"
         id="polygon6084"
         points="598.98456,715.59576 598.98456,741.99615 531.49493,740.30469 531.49493,728.74066 "
         style="fill:#00ff00;stroke:#303fc3;stroke-width:17.93240547;stroke-linejoin:bevel;stroke-miterlimit:4;stroke-dasharray:none;stroke-opacity:0.92523367" />
      <polygon
         transform="matrix(0.06141473,0,0,0.07589156,-31.494713,198.24448)"
         id="polygon6086"
         points="1532.3802,715.59576 1599.87,728.74066 1599.87,740.30463 1532.3802,741.99615 "
         style="fill:#00ff00;stroke:#303fc3;stroke-width:17.93240547;stroke-linejoin:bevel;stroke-miterlimit:4;stroke-dasharray:none;stroke-opacity:0.92523367" />
      <polygon
         transform="matrix(0.06141473,0,0,0.07589156,-31.494713,198.24448)"
         id="polygon6088"
         points="598.98456,715.59576 786.73529,716.68274 786.73529,731.26123 598.98456,741.99615 "
         style="fill:#00ff00;stroke:#303fc3;stroke-width:17.93240547;stroke-linejoin:bevel;stroke-miterlimit:4;stroke-dasharray:none;stroke-opacity:0.92523367" />
      <polygon
         transform="matrix(0.06141473,0,0,0.07589156,-31.494713,198.24448)"
         id="polygon6090"
         points="1532.3802,715.59576 1532.3802,741.99615 1344.6293,731.26123 1344.6293,716.68274 "
         style="fill:#00ff00;stroke:#303fc3;stroke-width:17.93240547;stroke-linejoin:bevel;stroke-miterlimit:4;stroke-dasharray:none;stroke-opacity:0.92523367" />
      <polygon
         transform="matrix(0.06141473,0,0,0.07589156,-31.494713,198.24448)"
         id="polygon6092"
         points="1065.6825,706.89667 1065.6825,737.16333 786.73553,731.26123 786.73553,716.68274 "
         style="fill:#00ff00;stroke:#303fc3;stroke-width:17.93240547;stroke-linejoin:bevel;stroke-miterlimit:4;stroke-dasharray:none;stroke-opacity:0.92523367" />
      <polygon
         transform="matrix(0.06141473,0,0,0.07589156,-31.494713,198.24448)"
         id="polygon6094"
         points="1065.6825,706.89667 1344.6295,716.68274 1344.6295,731.26123 1065.6825,737.16333 "
         style="fill:#00ff00;stroke:#303fc3;stroke-width:17.93240547;stroke-linejoin:bevel;stroke-miterlimit:4;stroke-dasharray:none;stroke-opacity:0.92523367" />
      <polygon
         transform="matrix(0.06141473,0,0,0.07589156,-31.494713,198.24448)"
         id="polygon6096"
         points="887.64819,581.59937 954.51178,537.43353 1065.6825,526.90918 "
         style="fill:#00ff00;stroke:#303fc3;stroke-width:17.93240547;stroke-linejoin:bevel;stroke-miterlimit:4;stroke-dasharray:none;stroke-opacity:0.92523367" />
    </g>
  </g>
</svg>
